<?xml version="1.0" standalone="no"?>
<!DOCTYPE svg PUBLIC "-//W3C//DTD SVG 20010904//EN"
 "http://www.w3.org/TR/2001/REC-SVG-20010904/DTD/svg10.dtd">
<svg version="1.0" xmlns="http://www.w3.org/2000/svg"
 width="16.000000pt" height="16.000000pt" viewBox="0 0 16.000000 16.000000"
 preserveAspectRatio="xMidYMid meet">
<metadata>
Created by potrace 1.11, written by Peter Selinger 2001-2013
</metadata>
<g transform="translate(0.000000,16.000000) scale(0.001600,-0.001600)"
fill="#000000" stroke="none">
<path d="M0 5660 l0 -4340 565 0 565 0 -12 -22 c-7 -12 -31 -47 -53 -76 -22
-30 -48 -66 -57 -81 -9 -14 -21 -30 -25 -36 -25 -30 -85 -129 -116 -191 -19
-39 -40 -79 -46 -90 -31 -57 -64 -188 -76 -308 -30 -288 -36 -333 -51 -386 -9
-30 -18 -66 -21 -80 -3 -14 -10 -31 -16 -38 -7 -9 122 -12 643 -12 l653 0 82
81 c90 88 167 144 211 155 16 4 34 11 41 16 7 6 344 6 857 2 l845 -7 -6 -51
c-9 -74 -9 -158 -1 -179 7 -16 41 -17 560 -15 l552 3 51 101 c27 56 58 111 68
121 17 19 52 20 1835 28 1867 7 1893 8 2015 19 206 20 373 89 480 200 58 59
104 127 112 163 2 10 13 45 25 78 11 33 23 76 26 95 3 19 8 46 10 60 3 14 8
43 11 65 3 22 7 492 9 1045 2 553 6 1024 9 1046 7 50 17 54 100 43 33 -4 81
-8 108 -8 l47 -1 0 824 0 823 -67 39 c-69 41 -105 72 -150 131 -22 29 -28 49
-34 131 -4 53 -8 736 -9 1517 -1 1463 -3 1532 -45 1750 -20 102 -94 232 -180
313 -72 68 -186 129 -275 146 -14 3 -34 7 -45 9 -113 25 -209 32 -437 36 l-78
1 0 610 0 610 -4340 0 -4340 0 0 -4340z m4960 3194 c0 -3 -8 -19 -17 -35 -21
-34 7 -33 -453 -29 -332 2 -390 9 -435 51 -19 19 -9 19 443 19 254 0 462 -3
462 -6z m770 -4 c0 -6 -12 -20 -26 -33 -20 -18 -41 -23 -107 -27 -182 -11
-369 12 -428 54 -22 15 -3 16 269 16 189 0 292 -4 292 -10z m1810 -30 l0 -41
-534 3 c-517 3 -535 4 -556 23 -12 11 -26 28 -31 37 -9 17 19 18 556 18 l565
0 0 -40z m0 -1494 l0 -474 -52 15 c-29 9 -60 22 -69 29 -8 8 -25 14 -36 14
-11 0 -26 6 -32 13 -6 8 -25 14 -43 15 -18 0 -38 8 -44 16 -6 9 -18 16 -26 16
-16 0 -81 24 -110 40 -22 12 -227 66 -288 75 -25 4 -76 16 -115 26 -38 10 -85
19 -105 19 -61 0 -104 18 -142 61 -21 23 -40 56 -42 73 -18 117 -10 340 15
441 13 51 42 82 84 88 17 2 249 5 518 6 l487 1 0 -474z m-2183 437 c42 -32
108 -118 141 -185 25 -50 48 -75 59 -64 4 4 8 47 8 97 1 82 3 91 28 117 35 36
120 62 206 62 133 0 184 -49 247 -235 44 -133 63 -285 39 -322 -9 -13 -16 -23
-18 -24 -1 0 -32 -2 -70 -5 -89 -7 -198 9 -296 43 l-80 28 -38 -42 c-44 -47
-35 -45 -298 -69 -322 -30 -354 -30 -423 1 -33 15 -70 37 -82 50 -25 27 -80
130 -80 151 0 8 -5 22 -10 32 -28 47 -52 142 -54 210 0 41 2 76 7 79 4 2 7 19
7 36 0 24 7 36 28 49 23 14 67 16 335 17 l308 1 36 -27z m3363 -603 c30 -135
40 -325 40 -740 0 -425 -1 -436 -54 -412 l-26 12 1 637 c0 427 4 630 10 613 5
-13 18 -63 29 -110z m-3060 -481 c54 -28 73 -59 100 -154 24 -89 44 -150 90
-275 30 -80 48 -176 84 -447 16 -122 13 -146 -25 -178 -35 -29 -59 -32 -314
-46 -110 -5 -245 -14 -299 -19 -116 -10 -159 1 -178 47 -9 22 -24 360 -31 683
0 19 7 62 16 95 9 33 17 96 18 142 1 88 5 96 64 125 21 11 65 15 145 16 76 0
129 6 155 16 59 22 127 20 175 -5z m1114 -28 c383 -124 456 -151 538 -197 33
-19 63 -34 67 -34 4 0 18 -11 31 -24 12 -14 35 -28 51 -31 16 -4 32 -12 36
-19 5 -7 16 -15 26 -19 16 -6 17 -37 17 -450 l0 -445 -42 9 c-24 4 -81 15
-128 24 -47 9 -148 32 -225 50 -77 19 -176 37 -220 40 -134 11 -286 35 -315
50 -36 19 -47 52 -60 189 -6 60 -13 113 -15 116 -2 4 -5 150 -6 326 -2 224 1
327 9 347 7 16 12 41 12 57 0 16 6 31 13 34 23 11 151 -3 211 -23z m-701 -12
c50 -14 62 -41 99 -229 39 -199 55 -323 68 -543 13 -224 10 -237 -60 -249 -35
-6 -57 -4 -102 13 -31 11 -63 28 -71 37 -28 32 -40 98 -43 222 -1 69 -7 148
-14 175 -16 67 -17 240 -1 287 9 28 10 55 2 110 -13 99 -4 159 29 175 31 16
44 16 93 2z m-1399 -20 c45 -21 125 -207 150 -352 8 -48 17 -91 20 -96 15 -23
26 -316 16 -422 -22 -252 -33 -264 -280 -329 -304 -80 -639 -192 -777 -259
-23 -12 -46 -21 -51 -21 -13 0 -366 -181 -427 -218 -27 -17 -63 -39 -80 -48
-16 -9 -93 -58 -170 -109 -150 -99 -232 -133 -415 -172 -121 -26 -335 -24
-382 4 l-33 19 0 120 c0 65 3 232 7 371 9 345 8 344 198 387 41 10 116 29 165
42 50 14 122 34 160 44 136 36 241 70 280 90 21 11 45 20 52 20 7 0 92 38 189
85 96 47 179 85 184 85 18 0 205 80 229 98 15 11 44 29 66 40 22 11 74 53 115
93 142 137 265 258 325 319 57 58 151 132 204 160 49 26 157 59 193 60 20 0
48 -5 62 -11z m-3484 -1143 c-1 -18 -11 -44 -25 -61 l-25 -30 0 84 0 84 25
-23 c16 -15 25 -34 25 -54z m4697 -643 c16 -24 18 -50 16 -210 -1 -169 -3
-186 -23 -218 -33 -53 -47 -57 -116 -29 -32 13 -64 24 -71 24 -6 0 -21 13 -32
29 -11 16 -37 36 -56 45 -20 10 -35 23 -34 29 4 30 -6 39 -78 75 -91 44 -135
71 -146 90 -5 7 -22 29 -39 48 -45 51 -31 73 64 107 101 36 91 35 305 36 l193
1 17 -27z m1034 -144 c67 -26 95 -45 182 -122 56 -51 113 -101 126 -112 12
-11 52 -48 87 -83 54 -53 64 -67 64 -97 0 -29 -5 -37 -32 -52 -52 -27 -98 -43
-163 -54 -84 -15 -97 -17 -210 -24 -99 -7 -101 -7 -132 19 -47 39 -62 102 -82
328 -8 92 2 182 24 217 11 18 52 12 136 -20z m-2990 -449 c309 -19 407 -30
684 -74 116 -19 385 -104 501 -160 98 -47 164 -98 164 -126 0 -23 -19 -30 -85
-30 -53 0 -85 -16 -85 -43 1 -27 40 -94 75 -131 83 -84 208 -118 423 -115 143
1 152 -3 151 -75 -2 -87 -22 -116 -142 -204 -49 -35 -87 -102 -87 -149 1 -43
31 -95 70 -120 19 -13 43 -30 53 -38 9 -8 24 -15 32 -15 8 0 15 -3 15 -7 0
-12 -43 -53 -56 -53 -7 0 -60 -15 -116 -34 -148 -49 -236 -74 -291 -85 -49 -9
-158 0 -232 19 -151 39 -203 45 -395 44 -279 -1 -441 -32 -730 -137 -191 -69
-257 -96 -353 -141 -54 -25 -101 -46 -104 -46 -3 0 -28 -13 -55 -30 l-48 -30
-561 0 -560 0 3 243 3 244 26 39 c15 21 51 64 80 96 121 127 213 259 314 448
125 236 228 379 388 546 125 128 177 162 275 174 75 10 404 4 643 -10z m4817
-669 c11 -6 13 -146 9 -767 -4 -720 -5 -765 -25 -869 -12 -60 -28 -128 -36
-150 -13 -36 -15 54 -15 861 l-1 902 23 15 c26 19 28 19 45 8z m-1208 -851 l0
-260 -592 0 c-325 0 -589 2 -586 5 2 3 83 14 179 25 238 28 278 35 375 75 100
40 157 80 239 167 51 54 79 73 185 125 69 34 141 75 160 92 19 17 36 30 38 31
1 0 2 -117 2 -260z m-2787 -94 c37 -17 10 -42 -108 -103 l-120 -62 -395 0
c-444 0 -433 -3 -225 67 119 40 313 86 430 102 74 10 393 7 418 -4z m-273
-1310 c0 -3 -25 -19 -55 -36 l-54 -31 -663 2 c-365 1 -697 6 -738 10 -78 10
-260 48 -260 55 0 2 398 4 885 4 487 0 885 -2 885 -4z m3740 -7 c-14 -6 -52
-15 -85 -21 -224 -37 -218 -37 -1561 -38 -1170 0 -1312 1 -1318 15 -3 9 3 24
14 35 20 20 39 20 1498 19 1010 0 1469 -3 1452 -10z"/>
<path d="M0 281 l0 -281 254 0 254 0 -14 30 c-9 16 -24 36 -34 43 -10 7 -24
25 -31 39 -15 34 -121 120 -196 159 -83 44 -105 69 -157 174 -77 156 -76 159
-76 -164z"/>
</g>
</svg>
